<svg id="Calque_1" data-name="Calque 1" xmlns="http://www.w3.org/2000/svg" viewBox="0 0 107.63 108.68"><defs><style>.cls-1{fill:#d9deda;}.cls-2{fill:#fff;}.cls-3{fill:#4a72e2;}.cls-4{fill:none;stroke:#292929;stroke-miterlimit:10;stroke-width:3px;}.cls-5{fill:#292929;}</style></defs><title>doctor</title><path class="cls-1" d="M7,53.83c0-10.17-2.17-21.5,6.08-34.25C19,10.51,30.67,3.92,44.92,3.92V7.08C30,7.58,18,14.78,13.09,27,8.34,38.75,10.67,52.33,10.5,53.58Z"/><path class="cls-2" d="M46.66,53.83c0-10.17,2.17-21.5-6.08-34.25C34.71,10.51,23,3.92,8.75,3.92V7.08C23.66,7.58,35.64,14.78,40.58,27,45.33,38.75,43,52.33,43.16,53.58Z"/><path class="cls-3" d="M96.09,28.85s-0.42,26.68-.42,42.06c0,23.58-15.5,37.77-34.42,37.77-20.35,0-38.17-14.18-38.17-33.34C9.92,75.34,5.75,63.42,5.75,57.75s0.91-6,2.58-6c2.33,0,3.25,1,3.25,6.17,0,4.33,5.5,11.25,15.5,11.25s13.92-7.25,14.67-12,0.08-5.67,3.08-5.67,2.46,3.83,2.42,6.33c-0.09,5.25-4.33,17.69-17.45,17.69C29.8,93.2,48.25,102,60.56,102c14.14,0,28.81-12.12,28.81-30V28.85h6.72Z"/><circle class="cls-2" cx="92.38" cy="15.25" r="15.25"/><path class="cls-1" d="M92.38,0a15.25,15.25,0,0,0,0,30.5V0Z"/><circle class="cls-2" cx="92.38" cy="15.25" r="9.38"/><path class="cls-1" d="M92.38,24.63a9.37,9.37,0,0,0,0-18.75V24.63Z"/><circle class="cls-4" cx="92.38" cy="15.25" r="9.38"/><path class="cls-5" d="M4.25,1.37h3.7A1.89,1.89,0,0,1,9.83,3.26V8A1.89,1.89,0,0,1,7.95,9.87H4.25A4.25,4.25,0,0,1,0,5.62v0A4.25,4.25,0,0,1,4.25,1.37Z" transform="translate(9.83 11.25) rotate(180)"/><path class="cls-5" d="M47.25,1.37h3.7a1.89,1.89,0,0,1,1.89,1.89V8a1.89,1.89,0,0,1-1.89,1.89h-3.7A4.25,4.25,0,0,1,43,5.62v0A4.25,4.25,0,0,1,47.25,1.37Z"/></svg>