<svg id="Calque_1" data-name="Calque 1" xmlns="http://www.w3.org/2000/svg" viewBox="0 0 127.9 290.73"><defs><style>.cls-1{fill:#00ba71;}.cls-2{opacity:0.1;}.cls-3{fill:#4f4f4f;}.cls-4{fill:#37c47e;}.cls-5{fill:#ff654f;}.cls-6{fill:#4a72e2;}.cls-7{fill:#ff7364;}.cls-8{fill:#dda485;}.cls-9{fill:#e5af98;}.cls-10{fill:#382e26;}.cls-11{fill:#efe5c5;}.cls-12{fill:#ffcb64;}.cls-13{fill:#ddd;}.cls-14{fill:#fff;}</style></defs><title>Maroc</title><rect class="cls-1" x="14.66" y="80.45" width="102.66" height="71.64" rx="16.17" ry="16.17"/><ellipse class="cls-2" cx="63.95" cy="279.56" rx="63.95" ry="11.17"/><path class="cls-3" d="M66,222.35h0c-21.68,0-39.25-22.57-39.25-44.25,0,0-1.43-13.84-1.43-31.34a282.67,282.67,0,0,1,1.43-29.7A39.25,39.25,0,0,1,66,77.81h0a39.25,39.25,0,0,1,39.25,39.25s1.2,14.45,1.2,29.45c0,18.25-1.2,31.59-1.2,31.59C105.23,199.78,87.65,222.35,66,222.35Z"/><path class="cls-4" d="M66,77.81"/><path class="cls-5" d="M26.73,178.1c0,21.68,17.57,44.25,39.25,44.25h0c21.68,0,39.25-22.57,39.25-44.25H26.73Z"/><path class="cls-6" d="M66.69,78.75"/><path class="cls-7" d="M76.82,209.58C84,255.17,85,262.34,85.93,271.48c0.36,3.35.29,12.39,6.53,12.56,5.83,0.15,7.21-3.49,7.21-6s-8.81-70.43-9.43-72.31h0A7.52,7.52,0,0,0,77,208.81Z"/><path class="cls-7" d="M59.95,209.61c-13.61,45.89-17.8,58.15-19.64,64.45-1.15,3.93-.86,8.84-7,9.83-7.84,1.25-8.75-6.53-7.56-10s14.93-45.71,20.8-68.22h0a7.52,7.52,0,0,1,13.25,3.14Z"/><circle class="cls-8" cx="66.27" cy="42.86" r="36.86" transform="translate(-6.51 73.37) rotate(-55.63)"/><rect class="cls-8" x="61.11" y="69.32" width="11.24" height="21" rx="5.25" ry="5.25" transform="translate(1 -0.83) rotate(0.71)"/><circle class="cls-9" cx="88.15" cy="57.98" r="5.3"/><circle class="cls-9" cx="46.15" cy="57.98" r="5.3"/><ellipse class="cls-8" cx="30.04" cy="45.35" rx="3.8" ry="5.64" transform="translate(-6.59 5.13) rotate(-8.8)"/><ellipse class="cls-8" cx="101.65" cy="46.86" rx="5.64" ry="3.8" transform="translate(35.59 137.22) rotate(-78.58)"/><path class="cls-10" d="M103.76,41.66C96.34,43,71.12,38.21,52,26.65c-11.19,14-22.86,13.12-22.86,13.12C30.55,23,33.72-4.51,73.8.63,73.8,0.63,107.78,5.5,103.76,41.66Z"/><path class="cls-1" d="M35.61,86.51c23,11.19,12.51,49.07-13.82,57-12,3.61,3.64-19.45,3.64-19.45s15.93-14.66,8.1-32.39C33,90.51,34.12,90.09,35.61,86.51Z"/><path class="cls-8" d="M49.6,167.2c-11.17-28-18.32-44.4-21.46-51.82-3-7.17-9.12-19.47-2.41-22.71,7.94-3.83,10.34,3.71,13.16,9.14,2.7,5.2,10,30.06,24.1,62.94,3.74,8.72,5.54,15.09,1.21,17.11S53,175.76,49.6,167.2Z"/><path class="cls-11" d="M75.66,173.32h0a3.1,3.1,0,0,1-3.76-2.25l-7.47-29.74,0.32-6.14,0.07-1.38a0.93,0.93,0,0,1,1.72-.43l0.7,1.15,3.2,5.29,7.47,29.74A3.1,3.1,0,0,1,75.66,173.32Z"/><path class="cls-11" d="M72.65,174.07"/><path class="cls-6" d="M67.24,134.53l-0.7-1.15a0.93,0.93,0,0,0-1.72.43l-0.07,1.38Z"/><path class="cls-6" d="M68.45,140.07h6.2a0,0,0,0,1,0,0V171a2.82,2.82,0,0,1-2.82,2.82H71.27A2.82,2.82,0,0,1,68.45,171V140.07A0,0,0,0,1,68.45,140.07Z" transform="translate(-36.06 22.15) rotate(-14.09)"/><path class="cls-11" d="M74.17,174.21h0a3.1,3.1,0,0,1-4.06-1.65L58.21,144.3l-0.61-6.12-0.14-1.37a0.93,0.93,0,0,1,1.63-.69l0.86,1,4,4.74,11.89,28.26A3.1,3.1,0,0,1,74.17,174.21Z"/><path class="cls-11" d="M71.31,175.41"/><path class="cls-1" d="M60,137.15l-0.86-1a0.93,0.93,0,0,0-1.63.69l0.14,1.37Z"/><path class="cls-1" d="M64.52,141.77h6.2a0,0,0,0,1,0,0v30.94a2.82,2.82,0,0,1-2.82,2.82H67.34a2.82,2.82,0,0,1-2.82-2.82V141.77a0,0,0,0,1,0,0Z" transform="translate(-56.25 38.66) rotate(-22.83)"/><path class="cls-11" d="M72.62,174.6h0a3.1,3.1,0,0,1-4.26-1l-16-26.16-1.52-6-0.34-1.34A0.93,0.93,0,0,1,52,139.2l1,0.89,4.63,4.09,16,26.16A3.1,3.1,0,0,1,72.62,174.6Z"/><path class="cls-11" d="M70,176.22"/><path class="cls-7" d="M53,140.09l-1-.89a0.93,0.93,0,0,0-1.51.92l0.34,1.34Z"/><path class="cls-7" d="M60.72,143.32h6.2a0,0,0,0,1,0,0v30.94a2.82,2.82,0,0,1-2.82,2.82H63.54a2.82,2.82,0,0,1-2.82-2.82V143.32a0,0,0,0,1,0,0Z" transform="translate(-74.2 56.81) rotate(-31.44)"/><path class="cls-11" d="M70.31,175.55h0A3.1,3.1,0,0,1,66,175L47,150.91l-2.21-5.74-0.5-1.29a0.93,0.93,0,0,1,1.39-1.09l1.11,0.77,5.08,3.52L70.83,171.2A3.1,3.1,0,0,1,70.31,175.55Z"/><path class="cls-11" d="M67.88,177.46"/><path class="cls-12" d="M46.82,143.56l-1.11-.77a0.93,0.93,0,0,0-1.39,1.09l0.5,1.29Z"/><path class="cls-12" d="M56.79,145.39H63a0,0,0,0,1,0,0v30.94a2.82,2.82,0,0,1-2.82,2.82H59.61a2.82,2.82,0,0,1-2.82-2.82V145.39A0,0,0,0,1,56.79,145.39Z" transform="translate(-87.45 71.66) rotate(-38.15)"/><path class="cls-1" d="M95.6,84.51c-27.73,13.5-2.43,52.09,13.82,57,12,3.61-3.64-19.45-3.64-19.45s-15.88-14.64-8.1-32.39C98.66,87.38,97.09,88.09,95.6,84.51Z"/><path class="cls-8" d="M83.77,167c10-28.43,16.45-45.13,19.27-52.67,2.73-7.29,8.3-19.84,1.45-22.8-8.09-3.5-10.17,4.14-12.77,9.68-2.48,5.3-8.71,30.45-21.44,63.9-3.38,8.86-4.9,15.31-.49,17.14S80.72,175.71,83.77,167Z"/><path class="cls-13" d="M101,119.64c0.8-2.11,1.46-3.87,2-5.3,2.73-7.29,8.3-19.84,1.45-22.8-8.09-3.5-10.17,4.14-12.77,9.68-0.9,1.92-2.29,6.45-4.31,13Z"/><path class="cls-13" d="M43.72,114.6c-2.28-6.47-3.85-10.92-4.83-12.8-2.82-5.43-5.23-13-13.16-9.14-6.71,3.24-.62,15.55,2.41,22.71l1.42,3.34Z"/><circle class="cls-10" cx="82.15" cy="46.86" r="2.98"/><circle class="cls-10" cx="54.15" cy="46.86" r="2.98"/><path class="cls-14" d="M75,63.33c0,3.78-3.54,6.84-7.9,6.84s-7.9-3.06-7.9-6.84H75Z"/><path class="cls-10" d="M79.24,38.3C68.44,35.29,44.92,26.62,26.78,5A2.12,2.12,0,0,1,29,1.64c5.21,1.46,13.31,2.23,24.87-.47A2.12,2.12,0,0,1,56,1.92L81.49,35A2.12,2.12,0,0,1,79.24,38.3Z"/></svg>