<svg id="Calque_1" data-name="Calque 1" xmlns="http://www.w3.org/2000/svg" viewBox="0 0 47.16 58.04"><defs><style>.cls-1{fill:#efe5c5;}.cls-2{fill:#4a72e2;}.cls-3{fill:#00ba71;}.cls-4{fill:#ff7364;}.cls-5{fill:#ffcb64;}.cls-6{fill:#a1d7d2;}.cls-7{fill:#7c7c7c;}</style></defs><title>outils</title><path class="cls-1" d="M28.11,40.38h0a3.1,3.1,0,0,1-3.76-2.25L16.89,8.4l0.32-6.14,0.07-1.38A0.93,0.93,0,0,1,19,.45L19.7,1.6l3.2,5.29,7.47,29.74A3.1,3.1,0,0,1,28.11,40.38Z"/><path class="cls-1" d="M25.11,41.14"/><path class="cls-2" d="M19.7,1.6L19,0.45a0.93,0.93,0,0,0-1.72.43L17.21,2.26Z"/><path class="cls-2" d="M20.91,7.13h6.2a0,0,0,0,1,0,0V38.07a2.82,2.82,0,0,1-2.82,2.82H23.73a2.82,2.82,0,0,1-2.82-2.82V7.13a0,0,0,0,1,0,0Z" transform="translate(-5.12 6.57) rotate(-14.09)"/><path class="cls-1" d="M26.63,41.27h0a3.1,3.1,0,0,1-4.06-1.65L10.67,11.36,10.06,5.24,9.92,3.87a0.93,0.93,0,0,1,1.63-.69l0.86,1,4,4.74L28.28,37.21A3.1,3.1,0,0,1,26.63,41.27Z"/><path class="cls-1" d="M23.77,42.47"/><path class="cls-3" d="M12.42,4.21l-0.86-1a0.93,0.93,0,0,0-1.63.69l0.14,1.37Z"/><path class="cls-3" d="M17,8.83h6.2a0,0,0,0,1,0,0V39.77a2.82,2.82,0,0,1-2.82,2.82H19.8A2.82,2.82,0,0,1,17,39.77V8.83A0,0,0,0,1,17,8.83Z" transform="translate(-8.4 9.8) rotate(-22.83)"/><path class="cls-1" d="M25.08,41.67h0a3.1,3.1,0,0,1-4.26-1l-16-26.16-1.52-6L3,7.19a0.93,0.93,0,0,1,1.51-.92l1,0.89,4.63,4.09,16,26.16A3.1,3.1,0,0,1,25.08,41.67Z"/><path class="cls-1" d="M22.44,43.28"/><path class="cls-4" d="M5.48,7.16l-1-.89A0.93,0.93,0,0,0,3,7.19L3.3,8.53Z"/><path class="cls-4" d="M13.18,10.39h6.2a0,0,0,0,1,0,0V41.32a2.82,2.82,0,0,1-2.82,2.82H16a2.82,2.82,0,0,1-2.82-2.82V10.39a0,0,0,0,1,0,0Z" transform="translate(-11.83 12.49) rotate(-31.44)"/><path class="cls-1" d="M5.25,58h0A3.1,3.1,0,0,1,2,55.12L0,24.52l1.43-6L1.75,17.2a0.93,0.93,0,0,1,1.77-.11L4,18.35l2.19,5.78,2,30.6A3.1,3.1,0,0,1,5.25,58Z"/><path class="cls-1" d="M2.16,58.21"/><path class="cls-5" d="M4,18.35L3.52,17.09a0.93,0.93,0,0,0-1.77.11L1.43,18.54Z"/><path class="cls-5" d="M1.07,24.29h6.2a0,0,0,0,1,0,0V55.22A2.82,2.82,0,0,1,4.45,58H3.89a2.82,2.82,0,0,1-2.82-2.82V24.29A0,0,0,0,1,1.07,24.29Z" transform="translate(-2.62 0.35) rotate(-3.66)"/><rect class="cls-6" x="24.6" y="6.1" width="11" height="51" rx="1.1" ry="1.1" transform="translate(19.72 -10.79) rotate(29.85)"/><path class="cls-7" d="M21,48.56L25.3,51l-0.55,1-4.29-2.46a0.55,0.55,0,0,1-.2-0.75h0A0.55,0.55,0,0,1,21,48.56Z"/><path class="cls-7" d="M26,39.88l4.29,2.46-0.55,1-4.29-2.46a0.55,0.55,0,0,1-.2-0.75h0A0.55,0.55,0,0,1,26,39.88Z"/><path class="cls-7" d="M31,31.21l4.29,2.46-0.55,1-4.29-2.46a0.55,0.55,0,0,1-.2-0.75h0A0.55,0.55,0,0,1,31,31.21Z"/><path class="cls-7" d="M35.94,22.53L40.23,25l-0.55,1-4.29-2.46a0.55,0.55,0,0,1-.2-0.75h0A0.55,0.55,0,0,1,35.94,22.53Z"/><path class="cls-7" d="M40.91,13.86l4.29,2.46-0.55,1-4.29-2.46a0.55,0.55,0,0,1-.2-0.75h0A0.55,0.55,0,0,1,40.91,13.86Z"/></svg>