<svg id="Calque_1" data-name="Calque 1" xmlns="http://www.w3.org/2000/svg" viewBox="0 0 501.44 480.92"><defs><style>.cls-1{opacity:0.1;}.cls-2{fill:#404040;}.cls-3{fill:#575757;}.cls-4{fill:#4a72e2;}.cls-5{fill:#5e87f7;}.cls-6{fill:#a1d7d2;}</style></defs><title>panneau</title><ellipse class="cls-1" cx="246.79" cy="460.52" rx="211.4" ry="20.41"/><path class="cls-2" d="M240.36,329.72H264a0,0,0,0,1,0,0v228.8a0,0,0,0,1,0,0H240.36a3.7,3.7,0,0,1-3.7-3.7V333.42A3.7,3.7,0,0,1,240.36,329.72Z" transform="translate(-193.8 694.45) rotate(-90)"/><path class="cls-3" d="M364.73,430.46h0a27.33,27.33,0,0,0-27.33-27.33H163.26a27.33,27.33,0,0,0-27.33,27.33h228.8Z"/><rect class="cls-2" x="221.53" y="264.43" width="28.8" height="138.7"/><rect class="cls-3" x="250.33" y="264.43" width="28.8" height="138.7" transform="translate(529.46 667.57) rotate(-180)"/><path class="cls-4" d="M386.54,0H114.9A66.1,66.1,0,0,0,51.63,47L2.88,208.1C-10,250.55,21.8,293.35,66.15,293.35H435.29c44.34,0,76.11-42.8,63.27-85.25L449.81,47A66.1,66.1,0,0,0,386.54,0Z"/><path class="cls-5" d="M250.72,0H114.9A66.1,66.1,0,0,0,51.63,47L2.88,208.1C-10,250.55,21.8,293.35,66.15,293.35H250.72V0Z"/><path class="cls-6" d="M384.45,41.66H117a7.74,7.74,0,0,0-7.47,5.72L102.6,72.94a7.74,7.74,0,0,0,7.47,9.76H391.36a7.74,7.74,0,0,0,7.47-9.76l-6.92-25.57A7.74,7.74,0,0,0,384.45,41.66Z"/><path class="cls-6" d="M405.42,105.14H96a7.74,7.74,0,0,0-7.47,5.72L80,142.59a7.74,7.74,0,0,0,7.47,9.76H414a7.74,7.74,0,0,0,7.47-9.76l-8.58-31.73A7.74,7.74,0,0,0,405.42,105.14Z"/><path class="cls-6" d="M425.47,183.55H76a7.74,7.74,0,0,0-7.47,5.72L58.32,226.9a7.74,7.74,0,0,0,7.47,9.76H435.65a7.74,7.74,0,0,0,7.47-9.76l-10.18-37.63A7.74,7.74,0,0,0,425.47,183.55Z"/></svg>