<svg id="Calque_2" data-name="Calque 2" xmlns="http://www.w3.org/2000/svg" viewBox="0 0 561.22 357.32"><defs><style>.cls-1{fill:#ffcb64;}.cls-2{fill:#4a72e2;}.cls-3{fill:#454656;}.cls-4{fill:#f4f4f4;}.cls-5{fill:#edc666;}.cls-6{fill:#5e87f7;}.cls-7{fill:#ffbc8e;}.cls-8{fill:#febd8c;}.cls-9{fill:#f9ad8f;}.cls-10{fill:#febd8b;}.cls-11{fill:#fffef6;}.cls-12{fill:#ed7f6b;}.cls-13{fill:#ff7364;}.cls-14{fill:#ff654f;}.cls-15{fill:#6a6a6a;}.cls-16{fill:#a2aab1;}.cls-17{fill:#6a818e;}.cls-18{fill:#cfecff;}.cls-19{fill:none;stroke:#fc4f4f;stroke-miterlimit:10;stroke-width:3px;}.cls-20{fill:#f7edd0;}.cls-21{fill:#e2d6b7;}.cls-22{fill:#777;}.cls-23{fill:#fff;}.cls-24{fill:#353535;}.cls-25{fill:#00ba71;}.cls-26{fill:#ffceae;}.cls-27{fill:#7f6f5b;}.cls-28{fill:#ed4a5b;}.cls-29{opacity:0.1;isolation:isolate;}.cls-30{fill:#37c47e;}.cls-31{fill:#ffcce7;}.cls-32{fill:#ff99a5;}.cls-33{fill:#ffdac5;}.cls-34{fill:#3a3431;}.cls-35{fill:#f9b797;}</style></defs><title>petm</title><path class="cls-1" d="M470.66,2c-12.87,3.47-31,20.83-26,46.59s39.79,53.13,39.79,53.13,39.38-27.5,39.38-57.13C523.8,29,512.31-9.18,470.66,2Z"/><path class="cls-2" d="M486,178.74h0c-17.37,0-31.44-18.08-31.44-35.44,0,0,.8-11,0.8-25s-0.8-23.85-.8-23.85A31.44,31.44,0,0,1,486,63h0A31.44,31.44,0,0,1,517.39,94.4h0s-0.8,11.83-.8,23.85c0,14.62.8,25,.8,25C517.39,160.66,503.31,178.74,486,178.74Z"/><path class="cls-3" d="M517,135.84c0.21,4.69.42,7.46,0.42,7.46,0,17.37-14.07,35.44-31.44,35.44h0c-17.37,0-31.44-18.08-31.44-35.44,0,0,.25-4.28.41-7.46H517Z"/><path class="cls-2" d="M486,63"/><rect class="cls-4" x="452.18" y="133.15" width="67.29" height="5.38" rx="2.52" ry="2.52"/><rect class="cls-5" x="479.28" y="130.61" width="14.62" height="10.69" rx="4.99" ry="4.99" transform="translate(-1.34 4.87) rotate(-0.57)"/><path class="cls-4" d="M489,137.73h-0.28l-3.93,0a1.91,1.91,0,0,1-.32-3.8h0.28l3.93,0A1.91,1.91,0,0,1,489,137.73Z"/><path class="cls-6" d="M511,70.36c-5.41.1-6.18,5.55-5.69,11.13s2.4,44.68,2.82,56.4-1.35,30.44-1.64,37.12-2.35,15.43,3.93,16c9,0.8,7.54-6.76,7.9-16s0.8-46.72.06-61.5l-1.6-32.43C516.56,76.4,516.87,70.24,511,70.36Z"/><path class="cls-7" d="M506.54,175c-0.21,6.29-2.35,15.43,3.93,16,9,0.8,7.54-6.76,7.9-16A52.06,52.06,0,0,1,506.54,175Z"/><path class="cls-6" d="M429.55,109.33c11.74-11.06,30.78-23.83,34.17-26.25,4.53-3.2,8.15-7.35,4.72-11.52-3.69-4.5-8.15-.31-11.85,2.57L433.46,92c-2.06,1.6-6.82,5-9.92,7.89-18.19,16.72-20.83,29.59-17.29,42.81,4,15.26,25.31,22.61,45.12,14.83a47,47,0,0,0,5.22-2.4c3.87-2.1,6.06-4,4.21-8.19-1.23-2.8-4.13-3-8.62-.6a26,26,0,0,1-3.93,1.6c-7.53,2.45-21.83,4.81-28.18-3C412.26,135.27,415.2,122.85,429.55,109.33Z"/><path class="cls-7" d="M451.37,157.51a47,47,0,0,0,5.22-2.4c3.87-2.1,6.06-4,4.21-8.19-1.23-2.8-4.13-3-8.62-.6a26,26,0,0,1-3.93,1.6Z"/><path class="cls-6" d="M463.73,83.09"/><rect class="cls-8" x="477.58" y="59.31" width="16.82" height="9" rx="4.21" ry="4.21" transform="translate(416.17 548.97) rotate(-89.29)"/><circle class="cls-7" cx="485.62" cy="34.22" r="29.52" transform="translate(183.23 415.74) rotate(-55.63)"/><path class="cls-3" d="M480.06,36.69h-1.91a2.56,2.56,0,0,0-.19-0.42,2.52,2.52,0,0,0-.54-0.63l1-1.76a0.52,0.52,0,1,0-.91-0.51l-1,1.77a2.31,2.31,0,0,0-1.23,0l-1-1.73a0.52,0.52,0,1,0-.91.53h0l1,1.69a2.3,2.3,0,0,0-.69,1.12h-1.91a0.52,0.52,0,0,0,0,1h1.84a2.53,2.53,0,0,0,.31.87,2.4,2.4,0,0,0,3.27.92,2.31,2.31,0,0,0,1.11-1.83h1.78A0.53,0.53,0,1,0,480.06,36.69Z"/><path class="cls-3" d="M502.49,36.69h-1.91a2.56,2.56,0,0,0-.19-0.42,2.52,2.52,0,0,0-.54-0.63l1-1.76a0.52,0.52,0,1,0-.91-0.51l-1,1.77a2.31,2.31,0,0,0-1.23,0l-1-1.73a0.52,0.52,0,1,0-.91.53h0l1,1.69a2.3,2.3,0,0,0-.69,1.12h-1.91a0.52,0.52,0,0,0,0,1H496a2.53,2.53,0,0,0,.31.87,2.4,2.4,0,0,0,3.27.92,2.31,2.31,0,0,0,1.11-1.83h1.78A0.53,0.53,0,1,0,502.49,36.69Z"/><circle class="cls-9" cx="503.14" cy="46.33" r="4.25"/><circle class="cls-9" cx="469.49" cy="46.33" r="4.25"/><path class="cls-1" d="M515.12,33.1c-5.94,1.11-37.36-4.85-41.45-19.88A28.09,28.09,0,0,1,455.9,31.75s2.68-31.22,34.81-27.11C490.71,4.64,514.49,8.91,515.12,33.1Z"/><ellipse class="cls-10" cx="456.58" cy="36.21" rx="3.04" ry="4.52" transform="translate(-0.17 70.28) rotate(-8.8)"/><ellipse class="cls-10" cx="513.96" cy="37.41" rx="4.52" ry="3.04" transform="translate(375.52 533.78) rotate(-78.58)"/><path class="cls-11" d="M483.93,54.43a23.33,23.33,0,0,1-.76-4l8-.1s-0.13,3.6-.64,4.3-2.76,1.4-2.76,1.4S484.38,55.6,483.93,54.43Z"/><path class="cls-12" d="M483,50.95a0.28,0.28,0,0,0,.24.31h0.08a39.7,39.7,0,0,1,7.73-.41c1.18,0.23-.68-2.35-1.6-2.35a6.78,6.78,0,0,0-2.36.66,3.62,3.62,0,0,0-1.95-.64A3.26,3.26,0,0,0,483,50.95Z"/><path class="cls-12" d="M483.45,53.33c0-1,2,1.41,3.86,1.41s3-1.85,3.72-1.92-0.43,4.48-3.34,4.81S483.54,55.63,483.45,53.33Z"/><path class="cls-13" d="M1.9,244.64c0-5.39,42.37-115.7,68.91-166.67a47.33,47.33,0,0,1,42-25.42h190A47.24,47.24,0,0,1,338.2,68.62L373,111s29.69,37,40.83,38.65c34.38,4.9,52.93,4.81,94.4,11.59,51.45,8.41,52.87,67.4,52.87,85.35s-4.75,32.26-12.68,32.26h-3.21a46.91,46.91,0,0,1-44.91-32.59C493,223,472.09,202.18,437.92,202.18c-32.29,0-50.39,21-57.35,42.85-6.36,19.88,0,33.84-20.82,33.84H223.56a46.73,46.73,0,0,1-44.67-31.66c-8.17-25.18-32-44.88-59-44.88S66.37,221.7,58.19,247.12C52.14,266.31,48.81,279,28.66,279H16.73C0.87,279,1.9,256.81,1.9,244.64Z"/><path class="cls-14" d="M21.42,190.86C10.22,220,1.9,242,1.9,244.64,1.9,256.75.84,279,16.7,279H58.19c-12.71-39.13,24.3-76.69,61.74-76.69S189.3,240.95,180.46,279H378.7c-6.87-25.91,9.08-76.66,59.23-76.66s71.91,44.94,63.56,76.66h47.06c7.93,0,12.68-14.28,12.68-32.26,0-11.92-.27-37.13-11.8-56.41"/><path class="cls-15" d="M58.19,279H16.73C0.87,279,1.9,258.35,1.9,246.25H58.5A55.38,55.38,0,0,0,58.19,279Z"/><path class="cls-15" d="M501.27,279h47.06c7.93,0,12.68-14.28,12.68-32.26l-60.8-.48A56.72,56.72,0,0,1,501.27,279Z"/><circle class="cls-15" cx="119.48" cy="265.25" r="51.81"/><circle class="cls-16" cx="119.48" cy="265.25" r="31.2"/><circle class="cls-17" cx="119.48" cy="265.25" r="19.04"/><circle class="cls-15" cx="439.5" cy="265.25" r="51.81"/><circle class="cls-16" cx="439.5" cy="265.25" r="31.2"/><circle class="cls-17" cx="439.5" cy="265.25" r="19.04"/><rect class="cls-18" x="142.66" y="64.08" width="64.74" height="77.33" rx="5.42" ry="5.42"/><path class="cls-18" d="M368.77,141.56H230.61a4.87,4.87,0,0,1-4.24-5.33V69.65a4.87,4.87,0,0,1,4.24-5.33H296a46.88,46.88,0,0,1,37.13,18.16l38.35,46.76C374.52,132.3,372.7,141.56,368.77,141.56Z"/><line class="cls-19" x1="216.66" y1="52.58" x2="216.66" y2="278.99"/><line class="cls-19" x1="367.53" y1="141.74" x2="367.53" y2="261.2"/><path class="cls-20" d="M35.19,157a8.38,8.38,0,0,1,6.63,9.83h0l-6.05,30.66a8.38,8.38,0,0,1-9.83,6.63h0l-4.18-.85a8.32,8.32,0,0,1-4.33-2.42l8.5-21.52Z"/><path class="cls-21" d="M37,190.86l-1.27,6.6a8.38,8.38,0,0,1-9.83,6.63h0l-4.15-.82a8.32,8.32,0,0,1-4.33-2.42l4.06-10.08H37v0.09Z"/><path class="cls-4" d="M487,176.64c-9.08,9.71,12.83,26.75,39.71,33.29a2.63,2.63,0,0,0,3-3.84C523.21,194.43,497.7,165,487,176.64Z"/><path class="cls-21" d="M518.31,190.86A92,92,0,0,1,529.66,206a2.63,2.63,0,0,1-3,3.84c-16-3.87-30.26-11.44-37.13-19h28.72Z"/><path class="cls-22" d="M226.37,154.09v9.32H254a3.87,3.87,0,0,0,3.87-3.87v-5.45H226.37Z"/><rect class="cls-16" x="226.37" y="154.09" width="31.54" height="5.45"/><path class="cls-15" d="M178.56,246.25H380.21A57.17,57.17,0,0,0,378.67,279H180.46S182.53,259.47,178.56,246.25Z"/><path class="cls-18" d="M121.93,141.41H65.64a4.81,4.81,0,0,1-4.15-7.14C67.82,119.68,79,96.65,84.43,86c7.35-14.19,17.34-21.94,31.51-21.94H122a5.27,5.27,0,0,1,4.72,5.69v66A5.27,5.27,0,0,1,121.93,141.41Z"/><path class="cls-4" d="M340,191.77a31.84,31.84,0,1,1-63.56,0"/><path class="cls-23" d="M276.31,191.77a31.84,31.84,0,1,1,63.56,0"/><path class="cls-24" d="M295.29,184.42l-4.45,1.06-1.42-5.81,7.75-2.18h5.33v26.63h-7.2v-19.7Z"/><path class="cls-24" d="M306.3,198.73l9.9-7.57a6.48,6.48,0,0,0,3.48-4.75,2.66,2.66,0,0,0-3-2.72,7.32,7.32,0,0,0-5.27,3.45L306.45,183a12.29,12.29,0,0,1,10.77-5.66c5.78,0,9.75,3.45,9.75,8.41h0c0,4.24-2.18,6.42-6.05,9.26l-4.54,3h10.93v6.05H306.36v-5.39H306.3Z"/><path class="cls-25" d="M84.31,164.09c-1.7,4.19-5.47,10.5-.64,12.74s5.38-5.28,9.5-8.45c6-4.65,14.58-42.5,38.59-72.72S173.49,52.51,179,49.53s10.55-4.65,7.61-9.61-8.16-1.74-12.13.87-34.06,20.06-58,58.56S87.24,156.86,84.31,164.09Z"/><path class="cls-26" d="M174.46,40.78c4-2.61,9.17-5.84,12.12-.87s-2.12,6.63-7.61,9.61Z"/><path class="cls-27" d="M91,74.26c6.33-8.22.94-21.71-11.34-21.71S59.49,63.14,65.28,74.11"/><path class="cls-28" d="M65,74.26c3.54-5.43,21.17-6.09,26,0"/><ellipse class="cls-29" cx="64.47" cy="348.65" rx="49.58" ry="8.66"/><path class="cls-30" d="M78.45,239.94h0c-16.81,0-30.43-17.5-30.43-34.31,0,0,.78-10.68.78-24.24S48,158.3,48,158.3a30.43,30.43,0,0,1,30.43-30.43h0a30.43,30.43,0,0,1,30.43,30.4s-0.78,11.45-.78,23.08c0,14.15.78,24.24,0.78,24.24C108.88,222.44,95.25,239.94,78.45,239.94Z"/><path class="cls-2" d="M108.47,198.42c0.2,4.54.4,7.22,0.4,7.22,0,16.81-13.62,34.31-30.43,34.31h0c-16.81,0-30.43-17.5-30.43-34.31,0,0,.24-4.14.4-7.22h60.07Z"/><path class="cls-2" d="M78.45,127.87"/><path class="cls-6" d="M87.51,229.17C101.32,295.48,91.21,339,90.23,344c-0.5,2.57-1.19,7.18,3.59,8,6.08,1,6.89-4.54,6.89-4.54,8.3-52.4,1.71-103.82-2.78-121.29h0a5.83,5.83,0,0,0-10.3,2.4Z"/><path class="cls-6" d="M71.53,229.21A912.39,912.39,0,0,1,39.16,344.39c-0.89,3-.67,6.85-5.43,7.62-6.08,1-6.86-4.57-6.86-4.57,26.46-75.74,29.72-103.82,34.27-121.27h0a5.83,5.83,0,0,1,10.27,2.43Z"/><rect class="cls-31" x="45.76" y="195.81" width="65.14" height="5.21" rx="2.43" ry="2.43"/><rect class="cls-32" x="72.14" y="193.25" width="14.15" height="10.34" rx="4.83" ry="4.83" transform="translate(-2.21 0.9) rotate(-0.64)"/><path class="cls-31" d="M81.42,200.22H81.15l-3.81,0a1.85,1.85,0,0,1-.31-3.68H77.3l3.81,0A1.85,1.85,0,0,1,81.42,200.22Z"/><path class="cls-25" d="M23.85,172.76c11.37-10.71,29.8-23.07,33.08-25.41,4.39-3.1,7.89-7.11,4.57-11.15-3.58-4.36-7.89-.27-11.47,2.49L27.64,155.94c-2,1.55-6.6,4.88-9.6,7.64C0.44,179.77-2.11,192.22,1.3,205,5.22,219.79,25.81,226.9,45,219.37A45.52,45.52,0,0,0,50,217c3.74-2,5.87-3.88,4.08-7.93-1.19-2.71-4-2.91-8.34-.58A25.2,25.2,0,0,1,42,210.09c-7.29,2.37-21.13,4.65-27.28-2.88C7.12,197.86,10,185.84,23.85,172.76Z"/><path class="cls-26" d="M45,219.39A45.52,45.52,0,0,0,50,217.06c3.74-2,5.87-3.88,4.08-7.93-1.19-2.71-4-2.91-8.34-.58A25.2,25.2,0,0,1,42,210.1Z"/><path class="cls-6" d="M56.94,147.35"/><rect class="cls-33" x="70.35" y="124.34" width="16.28" height="8.71" rx="4.07" ry="4.07" transform="translate(-51.17 205.59) rotate(-89.29)"/><circle class="cls-26" cx="78.13" cy="100.05" r="28.58" transform="translate(-48.56 108.06) rotate(-55.63)"/><path class="cls-34" d="M72.74,102.45H70.9a2.48,2.48,0,0,0-.19-0.4,2.44,2.44,0,0,0-.53-0.61l1-1.71a0.51,0.51,0,0,0-.88-0.5l-1,1.71a2.24,2.24,0,0,0-1.19,0l-1-1.67a0.51,0.51,0,1,0-.88.51l1,1.64a2.23,2.23,0,0,0-.67,1.09H64.7a0.51,0.51,0,1,0,0,1h1.78a2.45,2.45,0,0,0,.3.85,2.33,2.33,0,0,0,3.16.89A2.23,2.23,0,0,0,71,103.48h1.72A0.52,0.52,0,0,0,72.74,102.45Z"/><path class="cls-34" d="M94.45,102.45H92.61a2.48,2.48,0,0,0-.19-0.4,2.44,2.44,0,0,0-.53-0.61l1-1.71a0.51,0.51,0,0,0-.88-0.5l-1,1.71a2.24,2.24,0,0,0-1.19,0l-1-1.67a0.51,0.51,0,1,0-.88.51l1,1.64a2.23,2.23,0,0,0-.67,1.09H86.41a0.51,0.51,0,1,0,0,1H88.2a2.45,2.45,0,0,0,.3.85,2.33,2.33,0,0,0,3.16.89,2.23,2.23,0,0,0,1.08-1.78h1.72A0.52,0.52,0,0,0,94.45,102.45Z"/><circle class="cls-35" cx="95.09" cy="111.77" r="4.11"/><circle class="cls-35" cx="62.52" cy="111.77" r="4.11"/><ellipse class="cls-26" cx="50.03" cy="101.98" rx="2.95" ry="4.37" transform="translate(-15.01 8.85) rotate(-8.8)"/><ellipse class="cls-26" cx="105.55" cy="103.14" rx="4.37" ry="2.95" transform="translate(-16.45 186.18) rotate(-78.58)"/><path class="cls-27" d="M107.19,99.11c-5.75,1.07-25.31-2.67-40.1-11.63C58.41,98.34,49.36,97.65,49.36,97.65s3.18-29.8,34.25-25.82C83.61,71.83,106.58,75.69,107.19,99.11Z"/><path class="cls-28" d="M81.32,113.77a2.47,2.47,0,0,0-2.67.78,2.47,2.47,0,0,0-2.66-.88c-1.28.45-1.85,2.16-1.26,3.81a4,4,0,0,0,.4.78,2.7,2.7,0,0,0,1,1l0.2,0.12,0.31,0.16h0a4.88,4.88,0,0,0,3.61.11,2.92,2.92,0,0,0,1.27-.78h0a3.88,3.88,0,0,0,.88-1.33C83.08,116,82.58,114.26,81.32,113.77Z"/></svg>